<svg width="18" height="18" viewBox="0 0 18 18" fill="none" xmlns="http://www.w3.org/2000/svg">
<path opacity="0.4" d="M17.3335 8.99991C17.3335 13.5957 13.5952 17.3332 9.0002 17.3332C4.4052 17.3332 0.66687 13.5957 0.66687 8.99991C0.66687 4.40491 4.4052 0.66658 9.0002 0.66658C13.5952 0.66658 17.3335 4.40491 17.3335 8.99991Z" fill="white"/>
<path d="M12.5174 7.79791C12.5174 7.95708 12.4566 8.11708 12.3349 8.23875L9.44327 11.1446C9.32577 11.2621 9.1666 11.3279 8.99994 11.3279C8.8341 11.3279 8.67494 11.2621 8.55744 11.1446L5.6641 8.23875C5.42077 7.99458 5.42077 7.59958 5.66577 7.35541C5.91077 7.11208 6.3066 7.11291 6.54994 7.35708L8.99994 9.81791L11.4499 7.35708C11.6933 7.11291 12.0883 7.11208 12.3333 7.35541C12.4566 7.47708 12.5174 7.63791 12.5174 7.79791" fill="white"/>
</svg>
