<svg width="18" height="18" viewBox="0 0 18 18" fill="none" xmlns="http://www.w3.org/2000/svg">
<path opacity="0.4" d="M0.666586 9.0001C0.666586 4.40427 4.40492 0.666769 8.99992 0.666769C13.5949 0.666769 17.3333 4.40427 17.3333 9.0001C17.3333 13.5951 13.5949 17.3334 8.99992 17.3334C4.40492 17.3334 0.666586 13.5951 0.666586 9.0001Z" fill="#FFE800"/>
<path d="M5.48268 10.2021C5.48268 10.043 5.54352 9.88295 5.66518 9.76129L8.55685 6.85545C8.67435 6.73795 8.83352 6.67212 9.00018 6.67212C9.16602 6.67212 9.32518 6.73795 9.44268 6.85545L12.336 9.76129C12.5794 10.0055 12.5794 10.4005 12.3344 10.6446C12.0894 10.888 11.6935 10.8871 11.4502 10.643L9.00018 8.18212L6.55018 10.643C6.30685 10.8871 5.91185 10.888 5.66685 10.6446C5.54352 10.523 5.48268 10.3621 5.48268 10.2021Z" fill="#FFE800"/>
</svg>
