<svg width="1920" height="178" viewBox="0 0 1920 178" fill="none" xmlns="http://www.w3.org/2000/svg">
<path fill-rule="evenodd" clip-rule="evenodd" d="M1920 30.2093L1874 19.5742C1829 8.93915 1737 -11.9643 1646 8.93915C1554 30.2093 1463 93.6532 1371 93.6532C1280 93.6532 1189 30.2093 1097 15.907C1006 1.97133 914 37.1772 823 58.4473C731 79.3508 640 86.3186 549 83.0181C457 79.3508 366 65.4152 274 61.7479C183 58.4473 91 65.4152 46 68.7157L0 72.383V178H46C91 178 183 178 274 178C366 178 457 178 549 178C640 178 731 178 823 178C914 178 1006 178 1097 178C1189 178 1280 178 1371 178C1463 178 1554 178 1646 178C1737 178 1829 178 1874 178H1920V30.2093Z" fill="#5F0051"/>
</svg>
