<svg width="45" height="30" viewBox="0 0 45 30" fill="none" xmlns="http://www.w3.org/2000/svg">
<g clip-path="url(#clip0_38_524)">
<path d="M0 0H45V30.0004H0V0Z" fill="white"/>
<path d="M25.3125 -0.000244141H19.6875V12.1872H0V17.8122H19.6875V29.9997H25.3125V17.8122H45V12.1872H25.3125V-0.000244141Z" fill="#D80027"/>
<path d="M34.6101 20.217L45.0001 25.9894V20.217H34.6101ZM27.3914 20.217L45.0001 29.9996V27.2334L32.3708 20.217H27.3914ZM40.3097 29.9996L27.3914 22.8221V29.9996H40.3097Z" fill="#0052B4"/>
<path d="M27.3914 20.217L45.0001 29.9996V27.2334L32.3708 20.217H27.3914Z" fill="white"/>
<path d="M27.3914 20.217L45.0001 29.9996V27.2334L32.3708 20.217H27.3914Z" fill="#D80027"/>
<path d="M7.94013 20.2169L0 24.6281V20.2169H7.94013ZM17.6087 21.4609V29.9995H2.24042L17.6087 21.4609Z" fill="#0052B4"/>
<path d="M12.6293 20.217L0 27.2334V29.9996L17.6087 20.217H12.6293Z" fill="#D80027"/>
<path d="M10.39 9.78234L0 4.01003V9.78234H10.39ZM17.6087 9.78234L0 -0.000244141V2.76603L12.6293 9.78234H17.6087ZM4.69037 -0.000244141L17.6087 7.17726V-0.000244141H4.69037Z" fill="#0052B4"/>
<path d="M17.6087 9.78234L0 -0.000244141V2.76603L12.6293 9.78234H17.6087Z" fill="white"/>
<path d="M17.6087 9.78234L0 -0.000244141V2.76603L12.6293 9.78234H17.6087Z" fill="#D80027"/>
<path d="M37.0599 9.78249L45.0001 5.37126V9.78249H37.0599ZM27.3914 8.53849V-0.000183105H42.7596L27.3914 8.53849Z" fill="#0052B4"/>
<path d="M32.3708 9.78234L45.0001 2.76603V-0.000244141L27.3914 9.78234H32.3708Z" fill="#D80027"/>
</g>
<defs>
<clipPath id="clip0_38_524">
<path d="M0 5C0 2.23858 2.23858 0 5 0H40C42.7614 0 45 2.23858 45 5V25C45 27.7614 42.7614 30 40 30H5C2.23858 30 0 27.7614 0 25V5Z" fill="white"/>
</clipPath>
</defs>
</svg>
