<svg width="133" height="73" viewBox="0 0 133 73" fill="none" xmlns="http://www.w3.org/2000/svg">
<mask id="path-1-outside-1_3_14" maskUnits="userSpaceOnUse" x="0.630005" y="0" width="132" height="73" fill="black">
<rect fill="white" x="0.630005" width="132" height="73"/>
<path d="M28.24 31.1C28.28 31.7 28 32.26 27.4 32.78C26.66 33.42 26.22 33.92 26.08 34.28L20.38 48.62L20.68 51.68C20.78 52.6 20.83 52.98 20.83 52.82C20.83 53.5 20.44 53.97 19.66 54.23C19.34 54.35 18.98 54.41 18.58 54.41C17.7 54.41 16.95 54.19 16.33 53.75C15.63 53.27 15.34 52.66 15.46 51.92C15.52 51.58 15.74 51.14 16.12 50.6C16.48 50.12 16.64 49.68 16.6 49.28L16.3 45.98L11.86 32.84C11.78 32.58 11.53 32.15 11.11 31.55C10.79 31.05 10.63 30.65 10.63 30.35C10.63 30.15 10.68 29.96 10.78 29.78C11.04 29.28 11.85 29.03 13.21 29.03C14.09 29.03 14.64 29.1 14.86 29.24C15.52 29.66 15.88 30.17 15.94 30.77C16 31.35 16.06 31.92 16.12 32.48L18.94 41.24L22.6 31.76C22.98 30.78 23.23 30.17 23.35 29.93C23.47 29.67 23.76 29.44 24.22 29.24C24.56 29.08 24.94 29 25.36 29C26.08 29 26.73 29.2 27.31 29.6C27.89 30 28.2 30.5 28.24 31.1Z"/>
<path d="M34.9879 38.06C36.3279 39.42 36.9979 41.71 36.9979 44.93C36.9979 47.43 36.5279 49.56 35.5879 51.32C34.5279 53.3 33.0679 54.29 31.2079 54.29C29.3679 54.29 27.9479 53.4 26.9479 51.62C26.0679 50.06 25.6279 48.08 25.6279 45.68C25.6279 43.56 25.9679 41.66 26.6479 39.98C27.3679 38.18 28.2879 37.12 29.4079 36.8C29.9879 36.64 30.5879 36.56 31.2079 36.56C32.7479 36.56 34.0079 37.06 34.9879 38.06ZM31.5679 39.5C30.9079 39.44 30.3379 40.06 29.8579 41.36C29.4379 42.54 29.2279 43.78 29.2279 45.08C29.2279 46.96 29.3079 48.29 29.4679 49.07C29.7479 50.47 30.3279 51.24 31.2079 51.38C31.7679 51.46 32.2879 50.69 32.7679 49.07C33.2279 47.51 33.4579 45.84 33.4579 44.06C33.4579 41.14 32.8279 39.62 31.5679 39.5Z"/>
<path d="M50.6467 38.9C50.6867 39.2 50.6267 39.52 50.4667 39.86C50.2667 40.32 50.1467 40.66 50.1067 40.88C50.1067 45.04 49.9367 47.93 49.5967 49.55C48.8567 52.95 47.2867 54.65 44.8867 54.65C41.3867 54.65 39.6367 51.46 39.6367 45.08C39.6367 43.36 39.7667 41.54 40.0267 39.62C39.8867 39.16 39.8167 38.75 39.8167 38.39C39.8167 37.81 40.0067 37.32 40.3867 36.92C40.7067 36.58 41.1767 36.41 41.7967 36.41C42.2967 36.41 42.7667 36.52 43.2067 36.74C43.6467 36.94 43.9067 37.18 43.9867 37.46C44.0267 37.6 44.0467 37.74 44.0467 37.88C44.0467 38.14 43.9367 38.56 43.7167 39.14C43.4967 39.7 43.4067 40.16 43.4467 40.52C43.2467 41.64 43.1467 43.05 43.1467 44.75C43.1467 46.47 43.2567 47.9 43.4767 49.04C43.7567 50.36 44.1467 51.02 44.6467 51.02C45.4867 51.02 46.0367 49.6 46.2967 46.76C46.4367 45.34 46.5067 43.08 46.5067 39.98C46.5067 39.78 46.4767 39.49 46.4167 39.11C46.3567 38.73 46.3267 38.45 46.3267 38.27C46.3267 37.79 46.5067 37.46 46.8667 37.28C47.0667 37.18 47.3467 37.13 47.7067 37.13C48.3667 37.13 48.9767 37.27 49.5367 37.55C50.1967 37.89 50.5667 38.34 50.6467 38.9Z"/>
<path d="M76.0914 45.02C75.9514 45.18 75.6614 45.27 75.2214 45.29C74.6814 45.31 74.3114 45.36 74.1114 45.44C73.5514 45.56 72.9714 45.8 72.3714 46.16C69.2914 51.58 66.5314 54.29 64.0914 54.29C62.7714 54.29 61.5114 53.56 60.3114 52.1C59.6914 51.34 59.3814 50.48 59.3814 49.52C59.3814 48.52 59.7414 47.37 60.4614 46.07C60.8614 45.35 61.5914 44.24 62.6514 42.74C62.2114 42.8 61.6714 42.74 61.0314 42.56C60.1114 42.3 59.5714 41.78 59.4114 41C59.2714 40.38 59.6914 39.15 60.6714 37.31C61.6714 35.47 62.7914 33.83 64.0314 32.39C65.4114 30.77 66.5114 29.96 67.3314 29.96C68.4114 29.96 69.4314 30.74 70.3914 32.3C70.9914 33.28 71.2914 34.31 71.2914 35.39C71.2914 35.77 71.2314 36.06 71.1114 36.26C70.8714 36.64 70.4214 36.83 69.7614 36.83C69.2614 36.83 68.8614 36.71 68.5614 36.47C68.2614 36.23 68.0014 35.74 67.7814 35C67.6014 34.4 67.3914 34.1 67.1514 34.1C66.7514 34.1 65.9814 34.93 64.8414 36.59C63.7214 38.23 63.1614 39.28 63.1614 39.74C63.1614 39.94 63.3614 40.04 63.7614 40.04C64.2014 40.04 64.9214 39.74 65.9214 39.14C66.9214 38.54 67.5714 38.24 67.8714 38.24C68.3514 38.22 68.7714 38.35 69.1314 38.63C69.5114 38.91 69.7014 39.3 69.7014 39.8C69.7014 40.36 69.4514 40.98 68.9514 41.66C68.9114 41.72 68.6414 41.87 68.1414 42.11C67.6614 42.35 67.3714 42.58 67.2714 42.8C66.2314 43.5 65.2714 44.67 64.3914 46.31C63.5114 47.93 63.0714 49.23 63.0714 50.21C63.0714 50.93 63.3514 51.29 63.9114 51.29C64.5114 51.29 65.2414 50.86 66.1014 50C66.9814 49.14 67.5714 48.28 67.8714 47.42C67.2914 47.58 66.7714 47.49 66.3114 47.15C65.8514 46.79 65.6214 46.33 65.6214 45.77C65.6214 45.61 65.6514 45.48 65.7114 45.38C65.9514 44.94 67.4514 44.29 70.2114 43.43C72.9114 42.61 74.5314 42.26 75.0714 42.38C75.4514 42.46 75.7714 42.68 76.0314 43.04C76.2914 43.38 76.4214 43.75 76.4214 44.15C76.4214 44.49 76.3114 44.78 76.0914 45.02Z"/>
<path d="M110.219 53.48C109.759 54.14 109.089 54.47 108.209 54.47C107.409 54.47 106.579 54.21 105.719 53.69C104.939 53.23 104.499 52.78 104.399 52.34C104.359 52.18 104.339 52.03 104.339 51.89C104.339 51.57 104.469 51.21 104.729 50.81C105.009 50.41 105.139 50.06 105.119 49.76L104.219 39.68L99.0585 51.32C98.9985 51.48 98.9685 51.67 98.9685 51.89C98.9685 52.05 98.9885 52.3 99.0285 52.64C99.0885 52.98 99.1185 53.24 99.1185 53.42C99.1185 53.88 98.9385 54.23 98.5785 54.47C98.0585 54.83 97.4485 55.01 96.7485 55.01C96.0485 55.01 95.4085 54.82 94.8285 54.44C94.2685 54.08 93.9185 53.6 93.7785 53C93.7385 52.82 93.7185 52.66 93.7185 52.52C93.7185 52.38 93.7385 52.21 93.7785 52.01C93.8185 51.81 93.8385 51.66 93.8385 51.56C93.8385 51.44 93.8185 51.32 93.7785 51.2L89.4585 39.68L89.8785 50.54C89.8985 50.82 89.9685 51.22 90.0885 51.74C90.2085 52.24 90.2685 52.61 90.2685 52.85C90.2685 53.59 89.7185 54.17 88.6185 54.59C88.4785 54.63 88.3085 54.65 88.1085 54.65C87.4885 54.65 86.8485 54.44 86.1885 54.02C85.4285 53.56 84.9385 52.96 84.7185 52.22C84.6785 52.1 84.6585 51.99 84.6585 51.89C84.6585 51.69 84.7785 51.47 85.0185 51.23C85.2585 50.97 85.3785 50.74 85.3785 50.54L85.0185 33.44C85.0185 33.16 84.9185 32.81 84.7185 32.39C84.5185 31.95 84.4185 31.62 84.4185 31.4C84.4185 31.06 84.5985 30.7 84.9585 30.32C85.3185 29.92 85.9485 29.72 86.8485 29.72C88.1685 29.72 89.2185 30.04 89.9985 30.68C90.4385 31.04 90.6585 31.42 90.6585 31.82C90.6585 31.88 90.6485 31.97 90.6285 32.09C90.6285 32.21 90.6285 32.3 90.6285 32.36C90.6285 32.54 90.6585 32.7 90.7185 32.84L96.6585 47.24L103.319 31.94C103.399 31.76 103.439 31.55 103.439 31.31C103.439 31.23 103.429 31.11 103.409 30.95C103.409 30.79 103.409 30.67 103.409 30.59C103.409 30.13 103.619 29.74 104.039 29.42C104.379 29.16 104.829 29.03 105.389 29.03C106.249 29.03 107.079 29.29 107.879 29.81C108.699 30.33 109.099 30.92 109.079 31.58C109.059 31.9 108.909 32.17 108.629 32.39C108.349 32.59 108.219 32.78 108.239 32.96L109.499 50.66C109.519 50.86 109.679 51.21 109.979 51.71C110.279 52.19 110.429 52.58 110.429 52.88C110.429 53.08 110.359 53.28 110.219 53.48Z"/>
<path d="M122.569 50.39C122.409 51.15 121.869 51.96 120.949 52.82C120.809 53.04 120.259 53.33 119.299 53.69C118.199 54.11 117.249 54.29 116.449 54.23C114.949 54.13 113.769 53.27 112.909 51.65C112.129 50.15 111.739 48.31 111.739 46.13C111.739 43.77 112.179 41.7 113.059 39.92C114.039 37.96 115.349 36.86 116.989 36.62C117.309 36.58 117.619 36.56 117.919 36.56C120.299 36.56 121.609 38.02 121.849 40.94C121.969 42.28 121.439 43.74 120.259 45.32C118.979 47.06 117.339 48.28 115.339 48.98C115.559 49.78 115.729 50.3 115.849 50.54C116.129 51.04 116.509 51.29 116.989 51.29C117.449 51.29 117.939 51.11 118.459 50.75C118.899 50.45 119.199 50.16 119.359 49.88C119.439 49.84 119.519 49.62 119.599 49.22C119.679 48.8 119.889 48.5 120.229 48.32C120.349 48.26 120.489 48.23 120.649 48.23C121.129 48.23 121.589 48.47 122.029 48.95C122.489 49.41 122.669 49.89 122.569 50.39ZM117.859 39.83C117.059 39.83 116.409 40.4 115.909 41.54C115.249 43.06 114.979 44.56 115.099 46.04C116.039 45.74 116.909 45.04 117.709 43.94C118.509 42.84 118.909 41.86 118.909 41C118.909 40.22 118.559 39.83 117.859 39.83Z"/>
</mask>
<path d="M28.24 31.1C28.28 31.7 28 32.26 27.4 32.78C26.66 33.42 26.22 33.92 26.08 34.28L20.38 48.62L20.68 51.68C20.78 52.6 20.83 52.98 20.83 52.82C20.83 53.5 20.44 53.97 19.66 54.23C19.34 54.35 18.98 54.41 18.58 54.41C17.7 54.41 16.95 54.19 16.33 53.75C15.63 53.27 15.34 52.66 15.46 51.92C15.52 51.58 15.74 51.14 16.12 50.6C16.48 50.12 16.64 49.68 16.6 49.28L16.3 45.98L11.86 32.84C11.78 32.58 11.53 32.15 11.11 31.55C10.79 31.05 10.63 30.65 10.63 30.35C10.63 30.15 10.68 29.96 10.78 29.78C11.04 29.28 11.85 29.03 13.21 29.03C14.09 29.03 14.64 29.1 14.86 29.24C15.52 29.66 15.88 30.17 15.94 30.77C16 31.35 16.06 31.92 16.12 32.48L18.94 41.24L22.6 31.76C22.98 30.78 23.23 30.17 23.35 29.93C23.47 29.67 23.76 29.44 24.22 29.24C24.56 29.08 24.94 29 25.36 29C26.08 29 26.73 29.2 27.31 29.6C27.89 30 28.2 30.5 28.24 31.1Z" fill="#F91488"/>
<path d="M34.9879 38.06C36.3279 39.42 36.9979 41.71 36.9979 44.93C36.9979 47.43 36.5279 49.56 35.5879 51.32C34.5279 53.3 33.0679 54.29 31.2079 54.29C29.3679 54.29 27.9479 53.4 26.9479 51.62C26.0679 50.06 25.6279 48.08 25.6279 45.68C25.6279 43.56 25.9679 41.66 26.6479 39.98C27.3679 38.18 28.2879 37.12 29.4079 36.8C29.9879 36.64 30.5879 36.56 31.2079 36.56C32.7479 36.56 34.0079 37.06 34.9879 38.06ZM31.5679 39.5C30.9079 39.44 30.3379 40.06 29.8579 41.36C29.4379 42.54 29.2279 43.78 29.2279 45.08C29.2279 46.96 29.3079 48.29 29.4679 49.07C29.7479 50.47 30.3279 51.24 31.2079 51.38C31.7679 51.46 32.2879 50.69 32.7679 49.07C33.2279 47.51 33.4579 45.84 33.4579 44.06C33.4579 41.14 32.8279 39.62 31.5679 39.5Z" fill="#F91488"/>
<path d="M50.6467 38.9C50.6867 39.2 50.6267 39.52 50.4667 39.86C50.2667 40.32 50.1467 40.66 50.1067 40.88C50.1067 45.04 49.9367 47.93 49.5967 49.55C48.8567 52.95 47.2867 54.65 44.8867 54.65C41.3867 54.65 39.6367 51.46 39.6367 45.08C39.6367 43.36 39.7667 41.54 40.0267 39.62C39.8867 39.16 39.8167 38.75 39.8167 38.39C39.8167 37.81 40.0067 37.32 40.3867 36.92C40.7067 36.58 41.1767 36.41 41.7967 36.41C42.2967 36.41 42.7667 36.52 43.2067 36.74C43.6467 36.94 43.9067 37.18 43.9867 37.46C44.0267 37.6 44.0467 37.74 44.0467 37.88C44.0467 38.14 43.9367 38.56 43.7167 39.14C43.4967 39.7 43.4067 40.16 43.4467 40.52C43.2467 41.64 43.1467 43.05 43.1467 44.75C43.1467 46.47 43.2567 47.9 43.4767 49.04C43.7567 50.36 44.1467 51.02 44.6467 51.02C45.4867 51.02 46.0367 49.6 46.2967 46.76C46.4367 45.34 46.5067 43.08 46.5067 39.98C46.5067 39.78 46.4767 39.49 46.4167 39.11C46.3567 38.73 46.3267 38.45 46.3267 38.27C46.3267 37.79 46.5067 37.46 46.8667 37.28C47.0667 37.18 47.3467 37.13 47.7067 37.13C48.3667 37.13 48.9767 37.27 49.5367 37.55C50.1967 37.89 50.5667 38.34 50.6467 38.9Z" fill="#F91488"/>
<path d="M76.0914 45.02C75.9514 45.18 75.6614 45.27 75.2214 45.29C74.6814 45.31 74.3114 45.36 74.1114 45.44C73.5514 45.56 72.9714 45.8 72.3714 46.16C69.2914 51.58 66.5314 54.29 64.0914 54.29C62.7714 54.29 61.5114 53.56 60.3114 52.1C59.6914 51.34 59.3814 50.48 59.3814 49.52C59.3814 48.52 59.7414 47.37 60.4614 46.07C60.8614 45.35 61.5914 44.24 62.6514 42.74C62.2114 42.8 61.6714 42.74 61.0314 42.56C60.1114 42.3 59.5714 41.78 59.4114 41C59.2714 40.38 59.6914 39.15 60.6714 37.31C61.6714 35.47 62.7914 33.83 64.0314 32.39C65.4114 30.77 66.5114 29.96 67.3314 29.96C68.4114 29.96 69.4314 30.74 70.3914 32.3C70.9914 33.28 71.2914 34.31 71.2914 35.39C71.2914 35.77 71.2314 36.06 71.1114 36.26C70.8714 36.64 70.4214 36.83 69.7614 36.83C69.2614 36.83 68.8614 36.71 68.5614 36.47C68.2614 36.23 68.0014 35.74 67.7814 35C67.6014 34.4 67.3914 34.1 67.1514 34.1C66.7514 34.1 65.9814 34.93 64.8414 36.59C63.7214 38.23 63.1614 39.28 63.1614 39.74C63.1614 39.94 63.3614 40.04 63.7614 40.04C64.2014 40.04 64.9214 39.74 65.9214 39.14C66.9214 38.54 67.5714 38.24 67.8714 38.24C68.3514 38.22 68.7714 38.35 69.1314 38.63C69.5114 38.91 69.7014 39.3 69.7014 39.8C69.7014 40.36 69.4514 40.98 68.9514 41.66C68.9114 41.72 68.6414 41.87 68.1414 42.11C67.6614 42.35 67.3714 42.58 67.2714 42.8C66.2314 43.5 65.2714 44.67 64.3914 46.31C63.5114 47.93 63.0714 49.23 63.0714 50.21C63.0714 50.93 63.3514 51.29 63.9114 51.29C64.5114 51.29 65.2414 50.86 66.1014 50C66.9814 49.14 67.5714 48.28 67.8714 47.42C67.2914 47.58 66.7714 47.49 66.3114 47.15C65.8514 46.79 65.6214 46.33 65.6214 45.77C65.6214 45.61 65.6514 45.48 65.7114 45.38C65.9514 44.94 67.4514 44.29 70.2114 43.43C72.9114 42.61 74.5314 42.26 75.0714 42.38C75.4514 42.46 75.7714 42.68 76.0314 43.04C76.2914 43.38 76.4214 43.75 76.4214 44.15C76.4214 44.49 76.3114 44.78 76.0914 45.02Z" fill="#F91488"/>
<path d="M110.219 53.48C109.759 54.14 109.089 54.47 108.209 54.47C107.409 54.47 106.579 54.21 105.719 53.69C104.939 53.23 104.499 52.78 104.399 52.34C104.359 52.18 104.339 52.03 104.339 51.89C104.339 51.57 104.469 51.21 104.729 50.81C105.009 50.41 105.139 50.06 105.119 49.76L104.219 39.68L99.0585 51.32C98.9985 51.48 98.9685 51.67 98.9685 51.89C98.9685 52.05 98.9885 52.3 99.0285 52.64C99.0885 52.98 99.1185 53.24 99.1185 53.42C99.1185 53.88 98.9385 54.23 98.5785 54.47C98.0585 54.83 97.4485 55.01 96.7485 55.01C96.0485 55.01 95.4085 54.82 94.8285 54.44C94.2685 54.08 93.9185 53.6 93.7785 53C93.7385 52.82 93.7185 52.66 93.7185 52.52C93.7185 52.38 93.7385 52.21 93.7785 52.01C93.8185 51.81 93.8385 51.66 93.8385 51.56C93.8385 51.44 93.8185 51.32 93.7785 51.2L89.4585 39.68L89.8785 50.54C89.8985 50.82 89.9685 51.22 90.0885 51.74C90.2085 52.24 90.2685 52.61 90.2685 52.85C90.2685 53.59 89.7185 54.17 88.6185 54.59C88.4785 54.63 88.3085 54.65 88.1085 54.65C87.4885 54.65 86.8485 54.44 86.1885 54.02C85.4285 53.56 84.9385 52.96 84.7185 52.22C84.6785 52.1 84.6585 51.99 84.6585 51.89C84.6585 51.69 84.7785 51.47 85.0185 51.23C85.2585 50.97 85.3785 50.74 85.3785 50.54L85.0185 33.44C85.0185 33.16 84.9185 32.81 84.7185 32.39C84.5185 31.95 84.4185 31.62 84.4185 31.4C84.4185 31.06 84.5985 30.7 84.9585 30.32C85.3185 29.92 85.9485 29.72 86.8485 29.72C88.1685 29.72 89.2185 30.04 89.9985 30.68C90.4385 31.04 90.6585 31.42 90.6585 31.82C90.6585 31.88 90.6485 31.97 90.6285 32.09C90.6285 32.21 90.6285 32.3 90.6285 32.36C90.6285 32.54 90.6585 32.7 90.7185 32.84L96.6585 47.24L103.319 31.94C103.399 31.76 103.439 31.55 103.439 31.31C103.439 31.23 103.429 31.11 103.409 30.95C103.409 30.79 103.409 30.67 103.409 30.59C103.409 30.13 103.619 29.74 104.039 29.42C104.379 29.16 104.829 29.03 105.389 29.03C106.249 29.03 107.079 29.29 107.879 29.81C108.699 30.33 109.099 30.92 109.079 31.58C109.059 31.9 108.909 32.17 108.629 32.39C108.349 32.59 108.219 32.78 108.239 32.96L109.499 50.66C109.519 50.86 109.679 51.21 109.979 51.71C110.279 52.19 110.429 52.58 110.429 52.88C110.429 53.08 110.359 53.28 110.219 53.48Z" fill="#F91488"/>
<path d="M122.569 50.39C122.409 51.15 121.869 51.96 120.949 52.82C120.809 53.04 120.259 53.33 119.299 53.69C118.199 54.11 117.249 54.29 116.449 54.23C114.949 54.13 113.769 53.27 112.909 51.65C112.129 50.15 111.739 48.31 111.739 46.13C111.739 43.77 112.179 41.7 113.059 39.92C114.039 37.96 115.349 36.86 116.989 36.62C117.309 36.58 117.619 36.56 117.919 36.56C120.299 36.56 121.609 38.02 121.849 40.94C121.969 42.28 121.439 43.74 120.259 45.32C118.979 47.06 117.339 48.28 115.339 48.98C115.559 49.78 115.729 50.3 115.849 50.54C116.129 51.04 116.509 51.29 116.989 51.29C117.449 51.29 117.939 51.11 118.459 50.75C118.899 50.45 119.199 50.16 119.359 49.88C119.439 49.84 119.519 49.62 119.599 49.22C119.679 48.8 119.889 48.5 120.229 48.32C120.349 48.26 120.489 48.23 120.649 48.23C121.129 48.23 121.589 48.47 122.029 48.95C122.489 49.41 122.669 49.89 122.569 50.39ZM117.859 39.83C117.059 39.83 116.409 40.4 115.909 41.54C115.249 43.06 114.979 44.56 115.099 46.04C116.039 45.74 116.909 45.04 117.709 43.94C118.509 42.84 118.909 41.86 118.909 41C118.909 40.22 118.559 39.83 117.859 39.83Z" fill="#F91488"/>
<path d="M28.24 31.1C28.28 31.7 28 32.26 27.4 32.78C26.66 33.42 26.22 33.92 26.08 34.28L20.38 48.62L20.68 51.68C20.78 52.6 20.83 52.98 20.83 52.82C20.83 53.5 20.44 53.97 19.66 54.23C19.34 54.35 18.98 54.41 18.58 54.41C17.7 54.41 16.95 54.19 16.33 53.75C15.63 53.27 15.34 52.66 15.46 51.92C15.52 51.58 15.74 51.14 16.12 50.6C16.48 50.12 16.64 49.68 16.6 49.28L16.3 45.98L11.86 32.84C11.78 32.58 11.53 32.15 11.11 31.55C10.79 31.05 10.63 30.65 10.63 30.35C10.63 30.15 10.68 29.96 10.78 29.78C11.04 29.28 11.85 29.03 13.21 29.03C14.09 29.03 14.64 29.1 14.86 29.24C15.52 29.66 15.88 30.17 15.94 30.77C16 31.35 16.06 31.92 16.12 32.48L18.94 41.24L22.6 31.76C22.98 30.78 23.23 30.17 23.35 29.93C23.47 29.67 23.76 29.44 24.22 29.24C24.56 29.08 24.94 29 25.36 29C26.08 29 26.73 29.2 27.31 29.6C27.89 30 28.2 30.5 28.24 31.1Z" stroke="white" stroke-width="20" mask="url(#path-1-outside-1_3_14)"/>
<path d="M34.9879 38.06C36.3279 39.42 36.9979 41.71 36.9979 44.93C36.9979 47.43 36.5279 49.56 35.5879 51.32C34.5279 53.3 33.0679 54.29 31.2079 54.29C29.3679 54.29 27.9479 53.4 26.9479 51.62C26.0679 50.06 25.6279 48.08 25.6279 45.68C25.6279 43.56 25.9679 41.66 26.6479 39.98C27.3679 38.18 28.2879 37.12 29.4079 36.8C29.9879 36.64 30.5879 36.56 31.2079 36.56C32.7479 36.56 34.0079 37.06 34.9879 38.06ZM31.5679 39.5C30.9079 39.44 30.3379 40.06 29.8579 41.36C29.4379 42.54 29.2279 43.78 29.2279 45.08C29.2279 46.96 29.3079 48.29 29.4679 49.07C29.7479 50.47 30.3279 51.24 31.2079 51.38C31.7679 51.46 32.2879 50.69 32.7679 49.07C33.2279 47.51 33.4579 45.84 33.4579 44.06C33.4579 41.14 32.8279 39.62 31.5679 39.5Z" stroke="white" stroke-width="20" mask="url(#path-1-outside-1_3_14)"/>
<path d="M50.6467 38.9C50.6867 39.2 50.6267 39.52 50.4667 39.86C50.2667 40.32 50.1467 40.66 50.1067 40.88C50.1067 45.04 49.9367 47.93 49.5967 49.55C48.8567 52.95 47.2867 54.65 44.8867 54.65C41.3867 54.65 39.6367 51.46 39.6367 45.08C39.6367 43.36 39.7667 41.54 40.0267 39.62C39.8867 39.16 39.8167 38.75 39.8167 38.39C39.8167 37.81 40.0067 37.32 40.3867 36.92C40.7067 36.58 41.1767 36.41 41.7967 36.41C42.2967 36.41 42.7667 36.52 43.2067 36.74C43.6467 36.94 43.9067 37.18 43.9867 37.46C44.0267 37.6 44.0467 37.74 44.0467 37.88C44.0467 38.14 43.9367 38.56 43.7167 39.14C43.4967 39.7 43.4067 40.16 43.4467 40.52C43.2467 41.64 43.1467 43.05 43.1467 44.75C43.1467 46.47 43.2567 47.9 43.4767 49.04C43.7567 50.36 44.1467 51.02 44.6467 51.02C45.4867 51.02 46.0367 49.6 46.2967 46.76C46.4367 45.34 46.5067 43.08 46.5067 39.98C46.5067 39.78 46.4767 39.49 46.4167 39.11C46.3567 38.73 46.3267 38.45 46.3267 38.27C46.3267 37.79 46.5067 37.46 46.8667 37.28C47.0667 37.18 47.3467 37.13 47.7067 37.13C48.3667 37.13 48.9767 37.27 49.5367 37.55C50.1967 37.89 50.5667 38.34 50.6467 38.9Z" stroke="white" stroke-width="20" mask="url(#path-1-outside-1_3_14)"/>
<path d="M76.0914 45.02C75.9514 45.18 75.6614 45.27 75.2214 45.29C74.6814 45.31 74.3114 45.36 74.1114 45.44C73.5514 45.56 72.9714 45.8 72.3714 46.16C69.2914 51.58 66.5314 54.29 64.0914 54.29C62.7714 54.29 61.5114 53.56 60.3114 52.1C59.6914 51.34 59.3814 50.48 59.3814 49.52C59.3814 48.52 59.7414 47.37 60.4614 46.07C60.8614 45.35 61.5914 44.24 62.6514 42.74C62.2114 42.8 61.6714 42.74 61.0314 42.56C60.1114 42.3 59.5714 41.78 59.4114 41C59.2714 40.38 59.6914 39.15 60.6714 37.31C61.6714 35.47 62.7914 33.83 64.0314 32.39C65.4114 30.77 66.5114 29.96 67.3314 29.96C68.4114 29.96 69.4314 30.74 70.3914 32.3C70.9914 33.28 71.2914 34.31 71.2914 35.39C71.2914 35.77 71.2314 36.06 71.1114 36.26C70.8714 36.64 70.4214 36.83 69.7614 36.83C69.2614 36.83 68.8614 36.71 68.5614 36.47C68.2614 36.23 68.0014 35.74 67.7814 35C67.6014 34.4 67.3914 34.1 67.1514 34.1C66.7514 34.1 65.9814 34.93 64.8414 36.59C63.7214 38.23 63.1614 39.28 63.1614 39.74C63.1614 39.94 63.3614 40.04 63.7614 40.04C64.2014 40.04 64.9214 39.74 65.9214 39.14C66.9214 38.54 67.5714 38.24 67.8714 38.24C68.3514 38.22 68.7714 38.35 69.1314 38.63C69.5114 38.91 69.7014 39.3 69.7014 39.8C69.7014 40.36 69.4514 40.98 68.9514 41.66C68.9114 41.72 68.6414 41.87 68.1414 42.11C67.6614 42.35 67.3714 42.58 67.2714 42.8C66.2314 43.5 65.2714 44.67 64.3914 46.31C63.5114 47.93 63.0714 49.23 63.0714 50.21C63.0714 50.93 63.3514 51.29 63.9114 51.29C64.5114 51.29 65.2414 50.86 66.1014 50C66.9814 49.14 67.5714 48.28 67.8714 47.42C67.2914 47.58 66.7714 47.49 66.3114 47.15C65.8514 46.79 65.6214 46.33 65.6214 45.77C65.6214 45.61 65.6514 45.48 65.7114 45.38C65.9514 44.94 67.4514 44.29 70.2114 43.43C72.9114 42.61 74.5314 42.26 75.0714 42.38C75.4514 42.46 75.7714 42.68 76.0314 43.04C76.2914 43.38 76.4214 43.75 76.4214 44.15C76.4214 44.49 76.3114 44.78 76.0914 45.02Z" stroke="white" stroke-width="20" mask="url(#path-1-outside-1_3_14)"/>
<path d="M110.219 53.48C109.759 54.14 109.089 54.47 108.209 54.47C107.409 54.47 106.579 54.21 105.719 53.69C104.939 53.23 104.499 52.78 104.399 52.34C104.359 52.18 104.339 52.03 104.339 51.89C104.339 51.57 104.469 51.21 104.729 50.81C105.009 50.41 105.139 50.06 105.119 49.76L104.219 39.68L99.0585 51.32C98.9985 51.48 98.9685 51.67 98.9685 51.89C98.9685 52.05 98.9885 52.3 99.0285 52.64C99.0885 52.98 99.1185 53.24 99.1185 53.42C99.1185 53.88 98.9385 54.23 98.5785 54.47C98.0585 54.83 97.4485 55.01 96.7485 55.01C96.0485 55.01 95.4085 54.82 94.8285 54.44C94.2685 54.08 93.9185 53.6 93.7785 53C93.7385 52.82 93.7185 52.66 93.7185 52.52C93.7185 52.38 93.7385 52.21 93.7785 52.01C93.8185 51.81 93.8385 51.66 93.8385 51.56C93.8385 51.44 93.8185 51.32 93.7785 51.2L89.4585 39.68L89.8785 50.54C89.8985 50.82 89.9685 51.22 90.0885 51.74C90.2085 52.24 90.2685 52.61 90.2685 52.85C90.2685 53.59 89.7185 54.17 88.6185 54.59C88.4785 54.63 88.3085 54.65 88.1085 54.65C87.4885 54.65 86.8485 54.44 86.1885 54.02C85.4285 53.56 84.9385 52.96 84.7185 52.22C84.6785 52.1 84.6585 51.99 84.6585 51.89C84.6585 51.69 84.7785 51.47 85.0185 51.23C85.2585 50.97 85.3785 50.74 85.3785 50.54L85.0185 33.44C85.0185 33.16 84.9185 32.81 84.7185 32.39C84.5185 31.95 84.4185 31.62 84.4185 31.4C84.4185 31.06 84.5985 30.7 84.9585 30.32C85.3185 29.92 85.9485 29.72 86.8485 29.72C88.1685 29.72 89.2185 30.04 89.9985 30.68C90.4385 31.04 90.6585 31.42 90.6585 31.82C90.6585 31.88 90.6485 31.97 90.6285 32.09C90.6285 32.21 90.6285 32.3 90.6285 32.36C90.6285 32.54 90.6585 32.7 90.7185 32.84L96.6585 47.24L103.319 31.94C103.399 31.76 103.439 31.55 103.439 31.31C103.439 31.23 103.429 31.11 103.409 30.95C103.409 30.79 103.409 30.67 103.409 30.59C103.409 30.13 103.619 29.74 104.039 29.42C104.379 29.16 104.829 29.03 105.389 29.03C106.249 29.03 107.079 29.29 107.879 29.81C108.699 30.33 109.099 30.92 109.079 31.58C109.059 31.9 108.909 32.17 108.629 32.39C108.349 32.59 108.219 32.78 108.239 32.96L109.499 50.66C109.519 50.86 109.679 51.21 109.979 51.71C110.279 52.19 110.429 52.58 110.429 52.88C110.429 53.08 110.359 53.28 110.219 53.48Z" stroke="white" stroke-width="20" mask="url(#path-1-outside-1_3_14)"/>
<path d="M122.569 50.39C122.409 51.15 121.869 51.96 120.949 52.82C120.809 53.04 120.259 53.33 119.299 53.69C118.199 54.11 117.249 54.29 116.449 54.23C114.949 54.13 113.769 53.27 112.909 51.65C112.129 50.15 111.739 48.31 111.739 46.13C111.739 43.77 112.179 41.7 113.059 39.92C114.039 37.96 115.349 36.86 116.989 36.62C117.309 36.58 117.619 36.56 117.919 36.56C120.299 36.56 121.609 38.02 121.849 40.94C121.969 42.28 121.439 43.74 120.259 45.32C118.979 47.06 117.339 48.28 115.339 48.98C115.559 49.78 115.729 50.3 115.849 50.54C116.129 51.04 116.509 51.29 116.989 51.29C117.449 51.29 117.939 51.11 118.459 50.75C118.899 50.45 119.199 50.16 119.359 49.88C119.439 49.84 119.519 49.62 119.599 49.22C119.679 48.8 119.889 48.5 120.229 48.32C120.349 48.26 120.489 48.23 120.649 48.23C121.129 48.23 121.589 48.47 122.029 48.95C122.489 49.41 122.669 49.89 122.569 50.39ZM117.859 39.83C117.059 39.83 116.409 40.4 115.909 41.54C115.249 43.06 114.979 44.56 115.099 46.04C116.039 45.74 116.909 45.04 117.709 43.94C118.509 42.84 118.909 41.86 118.909 41C118.909 40.22 118.559 39.83 117.859 39.83Z" stroke="white" stroke-width="20" mask="url(#path-1-outside-1_3_14)"/>
<circle cx="11.5" cy="52.04" r="2.5" fill="white"/>
</svg>
