<svg width="30" height="20" viewBox="0 0 30 20" fill="none" xmlns="http://www.w3.org/2000/svg">
<path d="M0 0H30V20H0V0Z" fill="white"/>
<path d="M19.9181 7.15789H16.6374L15 4.31578L13.3626 7.15789H10.0819L11.7193 9.99999L10.0819 12.8421H13.3626L15 15.6842L16.6374 12.8421H19.9181L18.2807 9.99999L19.9181 7.15789ZM17.1462 9.99999L16.1404 11.9415H13.8655L12.8538 9.99999L13.8596 8.05847H16.1345L17.1462 9.99999ZM15 5.80116L15.6959 7.16373H14.2982L15 5.80116ZM11.5906 8.05847H12.9883L12.3567 9.28654L11.5906 8.05847ZM11.5906 11.9415L12.3509 10.6491L13.0468 11.9415H11.5906ZM15 14.1345L14.3041 12.8421H15.7018L15 14.1345ZM18.4737 11.9415H17.0117L17.7076 10.6491L18.4737 11.9415ZM16.9474 8.05847H18.4737L17.7135 9.35087L16.9474 8.05847ZM0 1.24561H29.9415V3.74268H0V1.24561ZM0 16.2164H29.9415V18.7134H0V16.2164Z" fill="#2E52B2"/>
</svg>
