<svg width="368" height="417" viewBox="0 0 368 417" fill="none" xmlns="http://www.w3.org/2000/svg">
<path fill-rule="evenodd" clip-rule="evenodd" d="M107.669 57.3816C132.294 43.2903 156.987 31.9656 184.641 25.3892C226.95 15.3277 272.479 -13.6544 311.793 8.83919C349.83 30.6022 361.357 84.7916 365.893 129.093C370.003 169.226 337.608 201.197 335.585 241.181C332.759 297.033 391.344 369.976 351.882 405.989C312.502 441.927 249.902 378.683 196.797 367.837C163.201 360.975 124.62 376.532 97.3522 354.002C70.2655 331.623 78.5118 286.948 61.235 255.833C45.5797 227.638 5.03515 214.162 2.00701 182.29C-0.999666 150.644 27.256 127.393 46.833 104.25C63.8463 84.1382 85.0514 70.3248 107.669 57.3816Z" stroke="white" stroke-width="2" stroke-dasharray="30 30"/>
</svg>
