<svg width="347" height="403" viewBox="0 0 347 403" fill="none" xmlns="http://www.w3.org/2000/svg">
<path fill-rule="evenodd" clip-rule="evenodd" d="M85.6485 89.3538C113.185 58.7968 126.968 3.89166 168.068 1.61212C209.383 -0.679415 233.975 48.1226 260.872 79.6352C280.098 102.16 286.928 130.386 300.462 156.723C315.694 186.365 342.617 210.246 345.058 243.463C348.02 283.789 342.636 328.231 315.242 357.903C286.776 388.737 241.613 406.593 200.041 400.54C160.717 394.814 142.441 349.578 109.109 327.89C77.2202 307.141 28.3312 310.364 10.1136 276.961C-8.23646 243.315 6.18859 200.886 20.4812 165.387C33.2656 133.634 62.7427 114.772 85.6485 89.3538Z" stroke="white" stroke-width="2" stroke-dasharray="30 30"/>
</svg>
