<svg width="650" height="689" viewBox="0 0 650 689" fill="none" xmlns="http://www.w3.org/2000/svg">
<path fill-rule="evenodd" clip-rule="evenodd" d="M-191.82 199.426C-171.292 134.555 -95.5722 107.216 -36.6242 73.1462C9.92859 46.2409 60.6062 33.8113 113.311 23.0738C165.564 12.4284 222.285 -13.8824 269.582 10.7636C316.756 35.3458 303.59 117.137 348.505 145.632C438.014 202.418 598.361 151.531 642.944 247.63C679.987 327.478 541.594 385.071 493.891 459.016C450.46 526.34 444.423 621.831 375.329 662.466C305.911 703.292 216.579 688.17 138.57 667.985C68.8445 649.943 10.5106 605.862 -40.3541 554.908C-86.037 509.144 -112.046 451.008 -137.382 391.547C-164.016 329.038 -212.311 264.181 -191.82 199.426Z" fill="#4E0242"/>
</svg>
