<svg width="360" height="181" viewBox="0 0 360 181" fill="none" xmlns="http://www.w3.org/2000/svg">
<path fill-rule="evenodd" clip-rule="evenodd" d="M-589 30.7184L-549.708 19.904C-511.271 9.08968 -432.688 -12.1661 -354.958 9.08968C-276.375 30.7184 -198.646 95.2315 -120.062 95.2315C-42.3333 95.2315 35.3959 30.7184 113.979 16.1749C191.708 2.00442 270.292 37.8036 348.021 59.4323C426.604 80.6881 504.333 87.7733 582.062 84.4171C660.646 80.6881 738.375 66.5175 816.958 62.7885C894.688 59.4323 973.271 66.5175 1011.71 69.8737L1051 73.6028V181H1011.71C973.271 181 894.688 181 816.958 181C738.375 181 660.646 181 582.062 181C504.333 181 426.604 181 348.021 181C270.292 181 191.708 181 113.979 181C35.3959 181 -42.3333 181 -120.062 181C-198.646 181 -276.375 181 -354.958 181C-432.688 181 -511.271 181 -549.708 181H-589V30.7184Z" fill="#5F0051"/>
</svg>
