<svg width="1920" height="212" viewBox="0 0 1920 212" fill="none" xmlns="http://www.w3.org/2000/svg">
<path fill-rule="evenodd" clip-rule="evenodd" d="M0 35.979L46 23.3125C91 10.646 183 -14.2503 274 10.646C366 35.979 457 111.541 549 111.541C640 111.541 731 35.979 823 18.9447C914 2.34723 1006 44.2778 1097 69.6108C1189 94.5071 1280 102.806 1371 98.8748C1463 94.5071 1554 77.9096 1646 73.5418C1737 69.6108 1829 77.9096 1874 81.8405L1920 86.2083V212H1874C1829 212 1737 212 1646 212C1554 212 1463 212 1371 212C1280 212 1189 212 1097 212C1006 212 914 212 823 212C731 212 640 212 549 212C457 212 366 212 274 212C183 212 91 212 46 212H0V35.979Z" fill="#5F0051"/>
</svg>
