<svg width="621" height="765" viewBox="0 0 621 765" fill="none" xmlns="http://www.w3.org/2000/svg">
<path fill-rule="evenodd" clip-rule="evenodd" d="M299.353 31.5432C351.549 43.5961 406.408 52.6013 446.125 88.5366C483.151 122.036 495.792 172.995 508.925 221.158C520.309 262.907 504.761 306.56 516.901 348.096C542.107 434.336 636.782 504.583 617.405 592.316C599.154 674.947 508.665 729.041 427.472 752.991C346.242 776.951 255.966 759.756 180.583 721.167C111.563 685.835 79.1433 610.072 30.445 549.749C-16.2465 491.913 -83.5588 446.741 -99.5548 374.161C-115.958 299.732 -93.4572 221.061 -56.713 154.282C-21.4916 90.2705 32.3142 32.7514 101.405 8.93514C165.487 -13.1544 233.308 16.2922 299.353 31.5432Z" stroke="white" stroke-width="2" stroke-dasharray="30 30"/>
</svg>
